HIERARCHY
ROOT hip
{
  OFFSET 0 0 0
  CHANNELS 6 Xposition Yposition Zposition Zrotation Yrotation Xrotation
  JOINT abdomen
  {
    OFFSET 0 20.6881 -0.73152
    CHANNELS 3 Zrotation Xrotation Yrotation
    JOINT chest
    {
      OFFSET 0 11.7043 -0.48768
      CHANNELS 3 Zrotation Xrotation Yrotation
      JOINT neck
      {
        OFFSET 0 22.1894 -2.19456
        CHANNELS 3 Zrotation Xrotation Yrotation
        JOINT head
        {
          OFFSET -0.24384 7.07133 1.2192
          CHANNELS 3 Zrotation Xrotation Yrotation
          JOINT leftEye
          {
            OFFSET 4.14528 8.04674 8.04672
            CHANNELS 3 Zrotation Xrotation Yrotation
            End Site
            {
              OFFSET 1 0 0
            }
          }
          JOINT rightEye
          {
            OFFSET -3.6576 8.04674 8.04672
            CHANNELS 3 Zrotation Xrotation Yrotation
            End Site
            {
              OFFSET 1 0 0
            }
          }
        }
      }
      JOINT rCollar
      {
        OFFSET -2.68224 19.2634 -4.8768
        CHANNELS 3 Zrotation Xrotation Yrotation
        JOINT rShldr
        {
          OFFSET -8.77824 -1.95073 1.46304
          CHANNELS 3 Zrotation Xrotation Yrotation
          JOINT rForeArm
          {
            OFFSET -28.1742 -1.7115 0.48768
            CHANNELS 3 Zrotation Xrotation Yrotation
            JOINT rHand
            {
              OFFSET -22.5879 0.773209 7.07136
              CHANNELS 3 Zrotation Xrotation Yrotation
              JOINT rThumb1
              {
                OFFSET -1.2192 -0.487915 3.41376
                CHANNELS 3 Zrotation Xrotation Yrotation
                JOINT rThumb2
                {
                  OFFSET -3.37035 -0.52449 3.41376
                  CHANNELS 3 Zrotation Xrotation Yrotation
                  End Site
                  {
                    OFFSET -1.78271 -1.18214 1.43049
                  }
                }
              }
              JOINT rIndex1
              {
                OFFSET -7.75947 0.938293 5.60832
                CHANNELS 3 Zrotation Xrotation Yrotation
                JOINT rIndex2
                {
                  OFFSET -2.54057 -0.884171 1.56538
                  CHANNELS 3 Zrotation Xrotation Yrotation
                  End Site
                  {
                    OFFSET -1.62519 -0.234802 1.16502
                  }
                }
              }
              JOINT rMid1
              {
                OFFSET -8.24714 1.18213 3.41376
                CHANNELS 3 Zrotation Xrotation Yrotation
                JOINT rMid2
                {
                  OFFSET -3.10165 -0.590103 1.0647
                  CHANNELS 3 Zrotation Xrotation Yrotation
                  End Site
                  {
                    OFFSET -2.48547 -0.328903 0.83742
                  }
                }
              }
              JOINT rRing1
              {
                OFFSET -8.82822 0.546677 1.51678
                CHANNELS 3 Zrotation Xrotation Yrotation
                JOINT rRing2
                {
                  OFFSET -2.60934 -0.819778 -0.0198488
                  CHANNELS 3 Zrotation Xrotation Yrotation
                  End Site
                  {
                    OFFSET -2.33842 -0.294052 0.168128
                  }
                }
              }
              JOINT rPinky1
              {
                OFFSET -8.27202 -0.0477905 -0.4584
                CHANNELS 3 Zrotation Xrotation Yrotation
                JOINT rPinky2
                {
                  OFFSET -1.82734 -0.647385 -0.700984
                  CHANNELS 3 Zrotation Xrotation Yrotation
                  End Site
                  {
                    OFFSET -1.69225 -0.51767 -0.607171
                  }
                }
              }
            }
          }
        }
      }
      JOINT lCollar
      {
        OFFSET 2.68224 19.2634 -4.8768
        CHANNELS 3 Zrotation Xrotation Yrotation
        JOINT lShldr
        {
          OFFSET 8.77824 -1.95073 1.46304
          CHANNELS 3 Zrotation Xrotation Yrotation
          JOINT lForeArm
          {
            OFFSET 28.1742 -1.7115 0.48768
            CHANNELS 3 Zrotation Xrotation Yrotation
            JOINT lHand
            {
              OFFSET 22.5879 0.773209 7.07136
              CHANNELS 3 Zrotation Xrotation Yrotation
              JOINT lThumb1
              {
                OFFSET 1.2192 -0.487915 3.41376
                CHANNELS 3 Zrotation Xrotation Yrotation
                JOINT lThumb2
                {
                  OFFSET 3.37035 -0.52449 3.41376
                  CHANNELS 3 Zrotation Xrotation Yrotation
                  End Site
                  {
                    OFFSET 1.78271 -1.18214 1.43049
                  }
                }
              }
              JOINT lIndex1
              {
                OFFSET 7.75947 0.938293 5.60832
                CHANNELS 3 Zrotation Xrotation Yrotation
                JOINT lIndex2
                {
                  OFFSET 2.54057 -0.884171 1.56538
                  CHANNELS 3 Zrotation Xrotation Yrotation
                  End Site
                  {
                    OFFSET 1.62519 -0.234802 1.16502
                  }
                }
              }
              JOINT lMid1
              {
                OFFSET 8.24714 1.18213 3.41376
                CHANNELS 3 Zrotation Xrotation Yrotation
                JOINT lMid2
                {
                  OFFSET 3.10165 -0.590103 1.0647
                  CHANNELS 3 Zrotation Xrotation Yrotation
                  End Site
                  {
                    OFFSET 2.48547 -0.328903 0.83742
                  }
                }
              }
              JOINT lRing1
              {
                OFFSET 8.82822 0.546677 1.51678
                CHANNELS 3 Zrotation Xrotation Yrotation
                JOINT lRing2
                {
                  OFFSET 2.60934 -0.819778 -0.0198488
                  CHANNELS 3 Zrotation Xrotation Yrotation
                  End Site
                  {
                    OFFSET 2.33842 -0.294052 0.168128
                  }
                }
              }
              JOINT lPinky1
              {
                OFFSET 8.27202 -0.0477905 -0.4584
                CHANNELS 3 Zrotation Xrotation Yrotation
                JOINT lPinky2
                {
                  OFFSET 1.82734 -0.647385 -0.700984
                  CHANNELS 3 Zrotation Xrotation Yrotation
                  End Site
                  {
                    OFFSET 1.69225 -0.51767 -0.607171
                  }
                }
              }
            }
          }
        }
      }
    }
  }
  JOINT rButtock
  {
    OFFSET -8.77824 4.35084 1.2192
    CHANNELS 3 Zrotation Xrotation Yrotation
    JOINT rThigh
    {
      OFFSET 0 -1.70687 -2.19456
      CHANNELS 3 Zrotation Xrotation Yrotation
      JOINT rShin
      {
        OFFSET 0 -36.8199 0.73152
        CHANNELS 3 Zrotation Xrotation Yrotation
        JOINT rFoot
        {
          OFFSET 0.73152 -45.1104 -5.12064
          CHANNELS 3 Zrotation Xrotation Yrotation
          End Site
          {
            OFFSET -1.1221 -3.69964 12.103
          }
        }
      }
    }
  }
  JOINT lButtock
  {
    OFFSET 8.77824 4.35084 1.2192
    CHANNELS 3 Zrotation Xrotation Yrotation
    JOINT lThigh
    {
      OFFSET 0 -1.70687 -2.19456
      CHANNELS 3 Zrotation Xrotation Yrotation
      JOINT lShin
      {
        OFFSET 0 -36.8199 0.73152
        CHANNELS 3 Zrotation Xrotation Yrotation
        JOINT lFoot
        {
          OFFSET -0.73152 -45.1104 -5.12064
          CHANNELS 3 Zrotation Xrotation Yrotation
          End Site
          {
            OFFSET 1.1221 -3.69964 12.103
          }
        }
      }
    }
  }
}
MOTION
Frames:	6
Frame Time:	0.00833333
-3.06101 83.7177 -33.019 19.5095 28.1633 65.8114 13.6329 41.1414 7.37371 6.84553 -0.0602527 3.65782 -2.71569 0.910237 -12.6406 -8.56634 -25.5322 -27.5974 -0.0 0.0 0.0 -0.0 0.0 0.0 9.68915e-14 -5.95005e-14 1.92502e-13 4.05042 -28.5106 49.0983 -10.5924 -4.50929 18.9161 0.00129815 -1.01039 -0.141993 -9.06984e-10 -1.25692e-09 2.32806e-10 -1.5732e-09 -2.17837e-09 4.05334e-10 -9.06981e-10 -1.25691e-09 2.32775e-10 7.73091 5.47488 0.417314 -9.06983e-10 -1.25692e-09 2.32802e-10 2.90554 0.965183 0.102902 -9.06973e-10 -1.25691e-09 2.32808e-10 10.2786 0.731801 0.0259123 -9.06985e-10 -1.25691e-09 2.32815e-10 2.22167 -0.733487 -0.20892 9.68912e-14 -5.95218e-14 1.92421e-13 -68.0654 48.3 -18.0111 26.8707 -25.9155 -60.7451 0.253446 -14.1904 2.03654 -1.20986e-10 1.15767e-09 -1.85362e-09 -1.87089e-10 1.98036e-09 -3.20789e-09 -1.2099e-10 1.15767e-09 -1.85361e-09 -7.73091 5.47488 -0.417314 -1.20983e-10 1.15767e-09 -1.85362e-09 -2.90554 0.965183 -0.102902 -1.20996e-10 1.15767e-09 -1.85362e-09 -10.2786 0.731801 -0.0259123 -1.20984e-10 1.15767e-09 -1.85362e-09 -2.22167 -0.733487 0.20892 -2.03217e-16 0.0 -3.88251e-19 -97.7924 -73.6312 -95.8661 -0.282273 37.5128 0.726462 -0.487585 0.373982 -3.08633 2.03217e-16 0.0 3.88251e-19 7.89775 -46.3753 -1.25894 0.0468246 28.3579 -0.964604 1.41422 11.7802 -7.77292
-3.36142 83.8143 -33.3412 20.036 28.1518 68.2354 13.8403 39.3975 7.39261 6.86746 0.550295 3.58696 -2.58435 0.999331 -12.6812 -8.75342 -26.3285 -27.9203 -0.0 0.0 0.0 -0.0 0.0 0.0 -2.55875e-13 -2.84214e-14 2.02409e-13 3.81641 -29.9297 49.2867 -10.4631 -4.42799 18.6713 0.00372903 0.0762327 0.0107343 -1.74204e-09 1.2304e-09 -5.617e-10 -3.01488e-09 2.1243e-09 -9.68579e-10 -1.74204e-09 1.23041e-09 -5.61718e-10 7.73091 5.47488 0.417314 -1.74204e-09 1.2304e-09 -5.61703e-10 2.90554 0.965183 0.102902 -1.74204e-09 1.2304e-09 -5.61698e-10 10.2786 0.731801 0.0259123 -1.74205e-09 1.2304e-09 -5.6169e-10 2.22167 -0.733487 -0.20892 -2.55938e-13 -2.84315e-14 2.02335e-13 -67.9035 48.3823 -18.0883 26.8491 -25.8463 -60.6346 0.244758 -13.9528 2.00102 7.40657e-10 -6.10043e-10 -2.27703e-09 1.30036e-09 -1.07568e-09 -3.92722e-09 7.40652e-10 -6.10044e-10 -2.27702e-09 -7.73091 5.47488 -0.417314 7.40661e-10 -6.10039e-10 -2.27703e-09 -2.90554 0.965183 -0.102902 7.40647e-10 -6.10037e-10 -2.27703e-09 -10.2786 0.731801 -0.0259123 7.40659e-10 -6.10036e-10 -2.27703e-09 -2.22167 -0.733487 0.20892 -2.03217e-16 0.0 -3.88251e-19 -104.629 -73.0719 -102.299 -0.281542 37.4895 0.725738 -0.484658 0.831029 -3.51318 2.03217e-16 0.0 3.88251e-19 8.16072 -48.1803 -1.13715 0.0532451 28.6974 -0.968713 1.58582 12.7653 -8.09644
-3.69513 83.8802 -33.6833 20.6512 28.1838 70.7877 14.0478 37.57 7.40854 6.90016 1.17975 3.50982 -2.4954 1.07301 -12.7146 -8.85066 -27.0626 -28.1888 -0.0 0.0 0.0 -0.0 0.0 0.0 -6.45677e-13 8.124e-15 2.2801e-13 3.67862 -31.344 49.5382 -10.3236 -4.34074 18.4087 0.000392357 1.25637 0.176603 -2.57558e-09 4.02627e-09 -1.51177e-09 -4.45396e-09 6.96099e-09 -2.61156e-09 -2.57557e-09 4.02627e-09 -1.51178e-09 7.73091 5.47488 0.417314 -2.57558e-09 4.02626e-09 -1.51178e-09 2.90554 0.965183 0.102902 -2.57557e-09 4.02626e-09 -1.51177e-09 10.2786 0.731801 0.0259123 -2.57558e-09 4.02627e-09 -1.51176e-09 2.22167 -0.733487 -0.20892 -6.45806e-13 8.12561e-15 2.2793e-13 -67.7315 48.4665 -18.1739 26.8261 -25.7736 -60.5189 0.236982 -13.7341 1.9684 1.71938e-09 -2.67855e-09 -2.62731e-09 2.98869e-09 -4.64992e-09 -4.51867e-09 1.71938e-09 -2.67855e-09 -2.62731e-09 -7.73091 5.47488 -0.417314 1.71939e-09 -2.67855e-09 -2.62731e-09 -2.90554 0.965183 -0.102902 1.71937e-09 -2.67855e-09 -2.62731e-09 -10.2786 0.731801 -0.0259123 1.71938e-09 -2.67854e-09 -2.62732e-09 -2.22167 -0.733487 0.20892 -2.03217e-16 0.0 -3.88251e-19 -111.15 -72.2941 -108.342 -0.281075 37.4818 0.725291 -0.479873 1.27894 -4.00647 2.03217e-16 0.0 3.88251e-19 8.41566 -50.0607 -1.00999 0.0604804 29.0835 -0.973133 1.74211 13.5747 -8.41917
-3.9146 83.9149 -33.8065 21.1917 28.2713 72.5063 14.2388 36.2113 7.45324 6.93465 1.65601 3.46178 -2.4184 1.14694 -12.7451 -8.95804 -27.7379 -28.4422 -0.0 0.0 0.0 -0.0 0.0 0.0 -9.26275e-13 5.08834e-14 2.35361e-13 3.35082 -32.5882 49.6554 -10.2104 -4.27022 18.1965 -0.00618768 2.24542 0.315737 -3.08717e-09 6.35289e-09 -2.34303e-09 -5.33818e-09 1.09863e-08 -4.04872e-09 -3.08716e-09 6.35289e-09 -2.34302e-09 7.73091 5.47488 0.417314 -3.08717e-09 6.35289e-09 -2.34303e-09 2.90554 0.965183 0.102902 -3.08716e-09 6.35289e-09 -2.34302e-09 10.2786 0.731801 0.0259123 -3.08718e-09 6.35289e-09 -2.34302e-09 2.22167 -0.733487 -0.20892 -9.26459e-13 5.0893e-14 2.35262e-13 -67.5677 48.5944 -18.2461 26.8047 -25.7064 -60.412 0.231522 -13.576 1.94488 2.54494e-09 -4.53838e-09 -2.68815e-09 4.41108e-09 -7.86148e-09 -4.61248e-09 2.54494e-09 -4.53839e-09 -2.68815e-09 -7.73091 5.47488 -0.417314 2.54495e-09 -4.53838e-09 -2.68815e-09 -2.90554 0.965183 -0.102902 2.54493e-09 -4.53838e-09 -2.68815e-09 -10.2786 0.731801 -0.0259123 2.54495e-09 -4.53838e-09 -2.68816e-09 -2.22167 -0.733487 0.20892 -2.03217e-16 0.0 -3.88251e-19 -116.11 -71.561 -112.796 -0.281134 37.5072 0.726391 -0.483107 1.57263 -4.51643 2.03217e-16 0.0 3.88251e-19 8.68137 -51.4591 -0.876038 0.0660838 29.3924 -0.978293 1.8658 14.1582 -8.68328
-4.06746 83.9273 -33.7288 21.3015 28.2726 73.3545 14.4056 35.4971 7.53906 6.96495 1.92208 3.4554 -2.37897 1.20677 -12.7707 -9.03702 -28.2988 -28.6453 -0.0 0.0 0.0 -0.0 0.0 0.0 -1.08607e-12 1.16083e-13 2.18278e-13 2.67165 -33.5861 49.5102 -10.1342 -4.22309 18.0537 -0.0118565 2.94058 0.413666 -3.16435e-09 8.38898e-09 -3.18028e-09 -5.47456e-09 1.45098e-08 -5.49559e-09 -3.16434e-09 8.38898e-09 -3.18027e-09 7.73091 5.47488 0.417314 -3.16435e-09 8.38898e-09 -3.18028e-09 2.90554 0.965183 0.102902 -3.16435e-09 8.38898e-09 -3.18027e-09 10.2786 0.731801 0.0259123 -3.16436e-09 8.38899e-09 -3.18027e-09 2.22167 -0.733487 -0.20892 -1.0863e-12 1.16096e-13 2.18136e-13 -67.4149 48.7846 -18.2997 26.7844 -25.6429 -60.3105 0.228685 -13.4925 1.93248 3.28509e-09 -6.47309e-09 -2.22585e-09 5.68223e-09 -1.11974e-08 -3.80415e-09 3.28509e-09 -6.4731e-09 -2.22584e-09 -7.73091 5.47488 -0.417314 3.28509e-09 -6.47309e-09 -2.22585e-09 -2.90554 0.965183 -0.102902 3.28508e-09 -6.47309e-09 -2.22585e-09 -10.2786 0.731801 -0.0259123 3.28509e-09 -6.47309e-09 -2.22585e-09 -2.22167 -0.733487 0.20892 -2.03217e-16 0.0 -3.88251e-19 -119.436 -71.0579 -115.609 -0.281638 37.5589 0.729032 -0.502576 1.65252 -5.02151 2.03217e-16 0.0 3.88251e-19 8.961 -52.2035 -0.727003 0.0693902 29.596 -0.984698 1.94647 14.4484 -8.9062
-4.15845 83.9523 -33.7441 21.8554 28.2525 74.5017 14.5574 35.1231 7.64443 6.99617 2.07339 3.47057 -2.38218 1.25033 -12.7903 -9.05059 -28.7644 -28.7873 -0.0 0.0 0.0 -0.0 0.0 0.0 -1.19391e-12 1.97983e-13 1.93908e-13 1.80806 -34.4364 49.2077 -10.0756 -4.18722 17.9436 -0.0166249 3.50259 0.492951 -2.98701e-09 1.04207e-08 -4.10388e-09 -5.17286e-09 1.80261e-08 -7.09138e-09 -2.98701e-09 1.04207e-08 -4.10387e-09 7.73091 5.47488 0.417314 -2.98701e-09 1.04207e-08 -4.10388e-09 2.90554 0.965183 0.102902 -2.98701e-09 1.04207e-08 -4.10387e-09 10.2786 0.731801 0.0259123 -2.98702e-09 1.04207e-08 -4.10386e-09 2.22167 -0.733487 -0.20892 -1.19419e-12 1.97995e-13 1.93703e-13 -67.264 49.0123 -18.3463 26.764 -25.5796 -60.2092 0.227573 -13.4603 1.92769 4.03735e-09 -8.6146e-09 -1.41444e-09 6.97139e-09 -1.48867e-08 -2.39284e-09 4.03735e-09 -8.61461e-09 -1.41443e-09 -7.73091 5.47488 -0.417314 4.03735e-09 -8.6146e-09 -1.41444e-09 -2.90554 0.965183 -0.102902 4.03733e-09 -8.6146e-09 -1.41444e-09 -10.2786 0.731801 -0.0259123 4.03735e-09 -8.6146e-09 -1.41444e-09 -2.22167 -0.733487 0.20892 -2.03217e-16 0.0 -3.88251e-19 -121.966 -70.7049 -117.595 -0.282507 37.6314 0.732658 -0.536266 1.60324 -5.55078 2.03217e-16 0.0 3.88251e-19 9.23946 -52.5988 -0.569948 0.0717038 29.7587 -0.991973 1.98837 14.4911 -9.1048
